<svg width="16" height="16" viewBox="0 0 16 16" fill="none" xmlns="http://www.w3.org/2000/svg">
<path d="M8.36253 10.6198L13.6719 5.04633C13.7607 4.95331 13.8103 4.82964 13.8103 4.70102C13.8103 4.5724 13.7607 4.44872 13.6719 4.3557L13.6657 4.35102C13.6227 4.30567 13.571 4.26955 13.5137 4.24487C13.4563 4.22019 13.3945 4.20746 13.3321 4.20746C13.2696 4.20746 13.2078 4.22019 13.1505 4.24487C13.0931 4.26955 13.0414 4.30567 12.9985 4.35102L7.99847 9.59789L3.0016 4.35102C2.95867 4.30567 2.90695 4.26955 2.84959 4.24487C2.79223 4.22019 2.73044 4.20746 2.668 4.20746C2.60556 4.20746 2.54377 4.22019 2.48642 4.24487C2.42906 4.26955 2.37734 4.30567 2.33441 4.35102L2.32816 4.3557C2.23933 4.44872 2.18977 4.5724 2.18977 4.70102C2.18977 4.82964 2.23933 4.95331 2.32816 5.04633L7.63753 10.6198C7.68424 10.6689 7.74047 10.7081 7.80279 10.7348C7.86511 10.7616 7.93222 10.7754 8.00003 10.7754C8.06785 10.7754 8.13496 10.7616 8.19728 10.7348C8.2596 10.7081 8.31582 10.6689 8.36253 10.6198Z" fill="black"/>
</svg>
